<?xml version="1.0" encoding="UTF-8" standalone="no"?>
<!DOCTYPE svg PUBLIC "-//W3C//DTD SVG 1.1//EN" "http://www.w3.org/Graphics/SVG/1.1/DTD/svg11.dtd">
<svg width="100%" height="100%" viewBox="0 0 1315 302" version="1.1" xmlns="http://www.w3.org/2000/svg" xmlns:xlink="http://www.w3.org/1999/xlink" xml:space="preserve" style="fill-rule:evenodd;clip-rule:evenodd;stroke-linejoin:round;stroke-miterlimit:1.41421;">
    <g transform="matrix(1,0,0,1,0,-665.292)">
        <g transform="matrix(4.16667,0,0,4.16667,0,0)">
            <path d="M15.493,177.909L29.95,177.909C31.129,177.909 31.912,177.868 32.299,177.786C32.685,177.704 32.98,177.622 33.183,177.539C34.443,177.088 35.074,176.041 35.074,174.4C35.074,173.087 34.423,172.143 33.123,171.569C32.796,171.405 32.38,171.302 31.872,171.261C31.363,171.22 30.743,171.199 30.011,171.199L15.493,171.199L15.493,177.909ZM15.432,194.745L31.048,194.745C31.82,194.745 32.482,194.725 33.031,194.684C33.58,194.644 34.016,194.542 34.342,194.379C35.358,194.013 36.009,193.485 36.294,192.793C36.578,192.102 36.721,191.39 36.721,190.658C36.721,188.991 36.029,187.954 34.647,187.547C34.159,187.385 33.62,187.293 33.031,187.272C32.441,187.252 31.678,187.242 30.743,187.242L15.432,187.242L15.432,194.745ZM0,161.5L36.111,161.5C36.843,161.5 37.646,161.521 38.521,161.561C39.395,161.602 40.269,161.693 41.144,161.835C42.018,161.978 42.892,162.202 43.767,162.506C44.641,162.811 45.444,163.229 46.176,163.757C46.948,164.327 47.579,164.967 48.067,165.678C48.555,166.391 48.931,167.102 49.196,167.813C49.46,168.525 49.632,169.216 49.714,169.887C49.795,170.559 49.836,171.138 49.836,171.626C49.836,174.31 49.114,176.425 47.671,177.97C46.227,179.516 44.183,180.614 41.541,181.264C42.19,181.346 42.861,181.447 43.553,181.569C44.244,181.691 44.936,181.874 45.627,182.118C46.318,182.362 47,182.688 47.671,183.094C48.342,183.501 48.982,184.009 49.592,184.619C50.527,185.595 51.168,186.653 51.514,187.791C51.859,188.93 52.032,190.272 52.032,191.817C52.032,193.322 51.828,194.674 51.422,195.873C51.015,197.073 50.456,198.13 49.745,199.045C49.033,199.96 48.21,200.744 47.274,201.394C46.338,202.045 45.342,202.574 44.285,202.98C42.455,203.672 40.564,204.108 38.612,204.291C36.66,204.475 34.83,204.566 33.123,204.566L0,204.566L0,161.5Z" style="fill:rgb(7,159,218);fill-rule:nonzero;"/>
            <path d="M72.528,179.19L84.118,179.19C84.728,179.19 85.388,179.17 86.1,179.128C86.811,179.087 87.493,178.942 88.144,178.694C88.793,178.446 89.333,178.055 89.76,177.517C90.187,176.98 90.4,176.216 90.4,175.225C90.4,174.73 90.319,174.235 90.157,173.739C89.994,173.243 89.709,172.81 89.303,172.438C88.692,171.86 88.022,171.509 87.29,171.385C86.558,171.261 85.907,171.199 85.337,171.199L72.528,171.199L72.528,179.19ZM57.095,161.5L88.753,161.5C89.689,161.5 90.675,161.521 91.712,161.561C92.749,161.602 93.786,161.713 94.823,161.896C95.86,162.08 96.887,162.355 97.904,162.721C98.919,163.087 99.876,163.596 100.771,164.246C102.316,165.426 103.546,166.993 104.461,168.945C105.376,170.898 105.834,172.973 105.834,175.168C105.834,176.715 105.6,178.2 105.133,179.623C104.665,181.047 103.983,182.289 103.089,183.346C102.479,184.079 101.848,184.679 101.198,185.146C100.547,185.614 99.906,185.99 99.276,186.275C98.645,186.56 98.035,186.784 97.446,186.946C96.856,187.109 96.337,187.251 95.891,187.373L106.688,204.566L89.607,204.566L80.763,188.889L72.528,188.889L72.528,204.566L57.095,204.566L57.095,161.5Z" style="fill:rgb(166,170,170);fill-rule:nonzero;"/>
            <path d="M153.475,161.439L153.475,171.138L138.225,171.138L138.225,204.566L122.67,204.566L122.67,171.138L107.359,171.138L107.359,161.439L153.475,161.439Z" style="fill-rule:nonzero;"/>
            <path d="M202.946,161.5L202.946,171.199L172.995,171.199L172.995,178.275L200.689,178.275L200.689,187.974L172.935,187.974L172.935,194.867L203.557,194.867L203.557,204.566L157.563,204.566L157.563,161.5L202.946,161.5Z" style="fill-rule:nonzero;"/>
            <path d="M235.764,169.552C234.015,169.552 232.348,169.827 230.762,170.375C229.176,170.924 227.772,171.758 226.553,172.876C225.333,173.996 224.366,175.398 223.655,177.085C222.943,178.773 222.588,180.756 222.588,183.033C222.588,184.66 222.832,186.266 223.32,187.852C223.808,189.438 224.57,190.862 225.607,192.122C226.645,193.383 227.966,194.4 229.572,195.172C231.179,195.945 233.08,196.331 235.275,196.331C236.983,196.331 238.579,196.087 240.064,195.599C241.549,195.111 242.859,194.4 243.999,193.464C245.015,192.651 245.727,191.888 246.134,191.176C246.54,190.465 246.866,189.784 247.109,189.133L261.811,190.658C261.566,191.472 261.271,192.295 260.927,193.128C260.579,193.962 260.062,194.928 259.371,196.026C258.109,197.978 256.574,199.594 254.766,200.875C252.955,202.156 250.973,203.184 248.817,203.956C246.662,204.728 244.405,205.268 242.047,205.572C239.688,205.877 237.329,206.03 234.971,206.03C232.855,206.03 230.771,205.917 228.719,205.694C226.664,205.47 224.641,205.054 222.648,204.444C220.453,203.753 218.368,202.808 216.396,201.607C214.424,200.408 212.706,198.934 211.242,197.185C209.778,195.437 208.619,193.393 207.765,191.054C206.911,188.716 206.483,186.063 206.483,183.094C206.483,181.712 206.626,180.166 206.911,178.458C207.195,176.75 207.734,175.032 208.527,173.303C209.32,171.575 210.397,169.887 211.761,168.24C213.122,166.593 214.871,165.14 217.006,163.879C219.142,162.619 221.724,161.602 224.753,160.829C227.782,160.057 231.331,159.67 235.397,159.67C238.895,159.67 241.914,159.914 244.456,160.402C246.997,160.89 249.184,161.521 251.014,162.293C252.844,163.066 254.348,163.95 255.528,164.946C256.707,165.943 257.663,166.939 258.394,167.935C259.127,168.933 259.686,169.898 260.071,170.833C260.458,171.769 260.773,172.582 261.018,173.273L246.744,175.835C246.418,175.225 246.021,174.534 245.555,173.761C245.086,172.989 244.283,172.236 243.145,171.504C241.965,170.772 240.715,170.264 239.394,169.979C238.071,169.695 236.862,169.552 235.764,169.552Z" style="fill-rule:nonzero;"/>
            <path d="M265.53,161.5L281.086,161.5L281.086,177.238L299.874,177.238L299.874,161.5L315.489,161.5L315.489,204.566L299.874,204.566L299.874,188.035L281.086,188.035L281.086,204.566L265.53,204.566L265.53,161.5Z" style="fill-rule:nonzero;"/>
            <path d="M6.509,221.352L11.723,221.352C12.148,221.352 12.43,221.337 12.57,221.308C12.709,221.278 12.815,221.248 12.889,221.218C13.343,221.056 13.571,220.678 13.571,220.086C13.571,219.613 13.336,219.273 12.867,219.066C12.749,219.006 12.599,218.969 12.416,218.955C12.232,218.94 12.009,218.932 11.745,218.932L6.509,218.932L6.509,221.352ZM6.487,227.424L12.119,227.424C12.397,227.424 12.636,227.416 12.834,227.402C13.032,227.387 13.189,227.351 13.307,227.292C13.673,227.16 13.908,226.969 14.011,226.72C14.113,226.471 14.165,226.214 14.165,225.95C14.165,225.349 13.915,224.975 13.417,224.828C13.241,224.77 13.046,224.737 12.834,224.729C12.621,224.722 12.346,224.718 12.009,224.718L6.487,224.718L6.487,227.424ZM0.92,215.434L13.945,215.434C14.209,215.434 14.498,215.442 14.814,215.456C15.129,215.471 15.444,215.503 15.76,215.555C16.075,215.607 16.39,215.687 16.706,215.797C17.021,215.907 17.311,216.058 17.575,216.248C17.853,216.454 18.081,216.685 18.257,216.941C18.433,217.198 18.568,217.455 18.664,217.711C18.759,217.968 18.821,218.217 18.851,218.459C18.88,218.701 18.895,218.91 18.895,219.086C18.895,220.054 18.634,220.817 18.114,221.374C17.593,221.931 16.856,222.328 15.903,222.562C16.137,222.591 16.379,222.628 16.628,222.672C16.878,222.716 17.127,222.782 17.377,222.87C17.626,222.958 17.872,223.076 18.114,223.222C18.356,223.369 18.586,223.552 18.807,223.772C19.144,224.124 19.375,224.505 19.5,224.916C19.624,225.327 19.687,225.811 19.687,226.368C19.687,226.911 19.613,227.399 19.467,227.831C19.32,228.264 19.118,228.645 18.862,228.975C18.605,229.305 18.308,229.587 17.971,229.822C17.633,230.057 17.274,230.248 16.893,230.394C16.232,230.644 15.551,230.801 14.847,230.867C14.143,230.933 13.482,230.966 12.867,230.966L0.92,230.966L0.92,215.434Z" style="fill:rgb(7,159,218);fill-rule:nonzero;"/>
            <path d="M27.87,226.852C28.325,227.278 28.838,227.581 29.41,227.765C29.982,227.949 30.576,228.04 31.192,228.04C31.837,228.04 32.454,227.941 33.041,227.743C33.627,227.545 34.14,227.245 34.581,226.841C35.021,226.438 35.373,225.932 35.636,225.323C35.9,224.714 36.032,224.007 36.032,223.2C36.032,222.877 35.996,222.482 35.922,222.012C35.849,221.542 35.666,221.074 35.373,220.604L27.87,226.852ZM34.47,219.46C34.001,219.079 33.488,218.796 32.93,218.613C32.373,218.43 31.786,218.338 31.17,218.338C30.114,218.338 29.271,218.514 28.64,218.866C28.01,219.218 27.525,219.644 27.189,220.142C26.851,220.641 26.631,221.158 26.528,221.693C26.426,222.229 26.375,222.679 26.375,223.046C26.375,223.149 26.378,223.299 26.385,223.497C26.393,223.695 26.418,223.915 26.462,224.157C26.506,224.399 26.572,224.656 26.66,224.927C26.749,225.199 26.866,225.458 27.012,225.708L34.47,219.46ZM40.608,214.356L41.51,215.478L39.178,217.436C39.369,217.642 39.6,217.902 39.872,218.217C40.143,218.533 40.399,218.914 40.641,219.361C40.883,219.809 41.088,220.34 41.257,220.956C41.426,221.572 41.51,222.284 41.51,223.09C41.51,223.736 41.444,224.373 41.313,225.004C41.18,225.635 40.968,226.236 40.674,226.808C40.249,227.644 39.685,228.385 38.981,229.03C38.012,229.925 36.897,230.559 35.636,230.933C34.375,231.307 32.938,231.494 31.324,231.494C30.752,231.494 30.066,231.457 29.268,231.384C28.468,231.31 27.672,231.157 26.88,230.922C26.25,230.732 25.758,230.534 25.406,230.328C25.054,230.123 24.724,229.917 24.417,229.712L21.667,232L20.764,230.944L23.316,228.788C23.126,228.597 22.891,228.344 22.612,228.029C22.334,227.713 22.063,227.318 21.798,226.841C21.534,226.365 21.311,225.811 21.127,225.18C20.944,224.549 20.853,223.824 20.853,223.002C20.853,222.181 20.959,221.429 21.171,220.747C21.384,220.065 21.659,219.456 21.997,218.921C22.334,218.386 22.704,217.92 23.107,217.524C23.511,217.128 23.903,216.805 24.284,216.556C24.797,216.204 25.348,215.918 25.935,215.698C26.521,215.478 27.115,215.306 27.716,215.181C28.317,215.056 28.916,214.968 29.509,214.917C30.104,214.866 30.665,214.84 31.192,214.84C31.706,214.84 32.344,214.873 33.106,214.939C33.869,215.005 34.639,215.148 35.417,215.368C35.988,215.53 36.45,215.706 36.802,215.896C37.154,216.086 37.536,216.299 37.946,216.534L40.608,214.356Z" style="fill:rgb(7,159,218);fill-rule:nonzero;"/>
            <path d="M53.875,221.682L63.114,221.682L63.114,230.966L58.318,230.966L58.318,229.25C58.171,229.382 58.025,229.507 57.878,229.624C57.731,229.742 57.512,229.896 57.218,230.086C57.013,230.218 56.752,230.361 56.438,230.515C56.122,230.669 55.744,230.812 55.304,230.944C54.864,231.076 54.347,231.19 53.753,231.285C53.159,231.38 52.481,231.428 51.718,231.428C50.56,231.428 49.449,231.263 48.385,230.933C47.322,230.603 46.379,230.108 45.559,229.448C44.737,228.788 44.081,227.956 43.589,226.951C43.098,225.947 42.853,224.762 42.853,223.398C42.853,223.12 42.863,222.841 42.885,222.562C42.907,222.284 42.948,222.004 43.006,221.726C43.153,220.949 43.436,220.157 43.854,219.35C44.272,218.543 44.898,217.788 45.734,217.084C46.277,216.629 46.86,216.251 47.483,215.951C48.106,215.651 48.755,215.409 49.43,215.225C50.105,215.041 50.798,214.914 51.509,214.84C52.221,214.767 52.928,214.73 53.632,214.73C54.835,214.73 56.045,214.855 57.262,215.104C58.215,215.31 59.052,215.599 59.771,215.973C60.489,216.347 61.149,216.878 61.751,217.568C62,217.847 62.179,218.092 62.29,218.305C62.399,218.518 62.513,218.748 62.63,218.998L57.13,219.57C56.617,219.042 56.071,218.687 55.491,218.503C54.912,218.32 54.322,218.228 53.72,218.228C52.796,218.228 52.012,218.382 51.366,218.69C50.721,218.998 50.189,219.394 49.772,219.878C49.354,220.362 49.049,220.901 48.858,221.495C48.668,222.089 48.572,222.672 48.572,223.244C48.572,224.036 48.705,224.722 48.968,225.301C49.232,225.88 49.588,226.365 50.035,226.753C50.482,227.142 50.996,227.428 51.575,227.611C52.155,227.794 52.76,227.886 53.39,227.886C53.933,227.886 54.461,227.817 54.974,227.677C55.488,227.538 55.946,227.347 56.349,227.105C56.752,226.863 57.094,226.577 57.373,226.247C57.651,225.917 57.835,225.562 57.922,225.18L53.875,225.18L53.875,221.682Z" style="fill:rgb(7,159,218);fill-rule:nonzero;"/>
            <path d="M63.928,215.434L69.362,215.434L70.66,222.826C70.719,223.149 70.771,223.424 70.814,223.651C70.858,223.878 70.895,224.091 70.924,224.289C70.954,224.487 70.983,224.693 71.012,224.905C71.042,225.118 71.071,225.364 71.101,225.642C71.145,225.393 71.177,225.184 71.199,225.015C71.221,224.846 71.247,224.685 71.276,224.531C71.306,224.377 71.338,224.208 71.376,224.025C71.412,223.842 71.46,223.611 71.519,223.332L73.388,215.434L79.064,215.434L80.01,219.834C80.171,220.538 80.307,221.124 80.418,221.594C80.527,222.064 80.619,222.496 80.692,222.892C80.766,223.288 80.839,223.688 80.913,224.091C80.985,224.495 81.074,224.99 81.176,225.576C81.206,225.356 81.231,225.169 81.253,225.015C81.275,224.861 81.293,224.714 81.309,224.575C81.323,224.436 81.341,224.296 81.363,224.157C81.385,224.018 81.411,223.845 81.44,223.64L82.87,215.434L88.282,215.434L84.543,230.966L78.581,230.966L76.798,223.97C76.71,223.604 76.633,223.295 76.567,223.046C76.502,222.796 76.446,222.551 76.402,222.309C76.358,222.067 76.314,221.814 76.271,221.55C76.227,221.286 76.182,220.963 76.138,220.582C76.094,220.934 76.058,221.231 76.028,221.473C75.999,221.715 75.962,221.957 75.918,222.199C75.875,222.441 75.819,222.705 75.753,222.991C75.688,223.277 75.603,223.625 75.501,224.036L73.696,230.966L67.69,230.966L63.928,215.434Z" style="fill:rgb(7,159,218);fill-rule:nonzero;"/>
            <path d="M97.918,219.746L96.136,225.004L99.744,225.004L97.918,219.746ZM94.728,215.434L101.064,215.434L107.796,230.966L101.747,230.966L100.911,228.436L94.97,228.436L94.134,230.966L88.04,230.966L94.728,215.434Z" style="fill:rgb(7,159,218);fill-rule:nonzero;"/>
            <path d="M114.639,215.434L114.639,227.182L122.559,227.182L122.559,230.966L109.072,230.966L109.072,215.434L114.639,215.434Z" style="fill:rgb(7,159,218);fill-rule:nonzero;"/>
            <path d="M129.664,227.468L132.106,227.468C133.06,227.468 133.818,227.387 134.383,227.225C134.948,227.064 135.392,226.835 135.714,226.541C136.095,226.204 136.399,225.737 136.627,225.141C136.854,224.545 136.968,223.916 136.968,223.255C136.968,222.505 136.836,221.858 136.572,221.314C136.308,220.77 135.978,220.336 135.582,220.012C135.098,219.63 134.552,219.387 133.943,219.285C133.334,219.181 132.773,219.13 132.26,219.13L129.664,219.13L129.664,227.468ZM124.23,215.434L133.052,215.434C133.316,215.434 133.657,215.438 134.075,215.445C134.493,215.453 134.948,215.489 135.439,215.555C135.93,215.621 136.444,215.724 136.979,215.863C137.514,216.002 138.046,216.207 138.574,216.479C139.102,216.75 139.601,217.099 140.07,217.524C140.54,217.95 140.958,218.478 141.324,219.108C141.412,219.254 141.515,219.449 141.632,219.691C141.75,219.933 141.867,220.23 141.984,220.582C142.102,220.934 142.2,221.341 142.281,221.803C142.362,222.265 142.402,222.782 142.402,223.354C142.402,223.97 142.347,224.575 142.237,225.169C142.127,225.763 141.947,226.338 141.698,226.896C141.595,227.116 141.471,227.358 141.324,227.622C141.177,227.886 140.99,228.154 140.763,228.425C140.536,228.697 140.261,228.964 139.938,229.228C139.615,229.492 139.234,229.742 138.794,229.976C137.958,230.416 137.151,230.691 136.374,230.801C135.597,230.911 134.834,230.966 134.086,230.966L124.23,230.966L124.23,215.434Z" style="fill:rgb(7,159,218);fill-rule:nonzero;"/>
            <path d="M149.926,221.814L154.105,221.814C154.326,221.814 154.564,221.807 154.82,221.791C155.078,221.777 155.322,221.725 155.559,221.635C155.793,221.546 155.986,221.405 156.141,221.21C156.295,221.017 156.371,220.742 156.371,220.384C156.371,220.206 156.342,220.027 156.283,219.848C156.225,219.669 156.123,219.513 155.977,219.379C155.756,219.17 155.514,219.043 155.25,218.999C154.986,218.955 154.752,218.932 154.547,218.932L149.926,218.932L149.926,221.814ZM144.36,215.434L155.777,215.434C156.115,215.434 156.471,215.442 156.846,215.456C157.219,215.471 157.594,215.511 157.967,215.577C158.342,215.643 158.711,215.743 159.078,215.874C159.445,216.006 159.789,216.19 160.111,216.424C160.67,216.85 161.113,217.415 161.443,218.119C161.773,218.824 161.938,219.572 161.938,220.364C161.938,220.921 161.854,221.456 161.686,221.97C161.516,222.484 161.27,222.931 160.947,223.313C160.729,223.578 160.5,223.793 160.266,223.962C160.031,224.131 159.801,224.267 159.572,224.37C159.346,224.472 159.125,224.553 158.912,224.612C158.701,224.67 158.514,224.721 158.352,224.765L162.246,230.966L156.086,230.966L152.896,225.312L149.926,225.312L149.926,230.966L144.36,230.966L144.36,215.434Z" style="fill:rgb(166,170,170);fill-rule:nonzero;"/>
            <path d="M173.356,218.316C172.477,218.301 171.739,218.448 171.146,218.756C170.552,219.064 170.075,219.456 169.716,219.933C169.355,220.41 169.096,220.938 168.935,221.517C168.772,222.096 168.692,222.65 168.692,223.178C168.692,223.78 168.776,224.37 168.945,224.949C169.114,225.529 169.386,226.049 169.76,226.511C170.134,226.973 170.617,227.347 171.212,227.633C171.806,227.919 172.521,228.062 173.356,228.062C173.737,228.062 174.123,228.033 174.512,227.974C174.9,227.915 175.263,227.798 175.601,227.622C176.025,227.402 176.385,227.123 176.679,226.786C176.972,226.449 177.21,226.075 177.394,225.664C177.577,225.253 177.709,224.835 177.789,224.41C177.87,223.985 177.91,223.574 177.91,223.178C177.91,222.752 177.852,222.261 177.734,221.704C177.617,221.147 177.394,220.619 177.063,220.12C176.733,219.622 176.271,219.2 175.678,218.855C175.084,218.51 174.31,218.331 173.356,218.316ZM173.026,214.862C173.994,214.847 174.977,214.903 175.975,215.027C176.972,215.152 177.918,215.398 178.813,215.764C179.707,216.13 180.459,216.596 181.067,217.161C181.676,217.726 182.171,218.338 182.553,218.998C182.934,219.658 183.209,220.347 183.378,221.066C183.546,221.785 183.631,222.474 183.631,223.134C183.631,223.868 183.539,224.593 183.355,225.312C183.172,226.031 182.89,226.712 182.509,227.358C182.01,228.179 181.394,228.876 180.66,229.448C179.604,230.284 178.457,230.837 177.218,231.109C175.978,231.38 174.646,231.516 173.225,231.516C171.875,231.516 170.713,231.41 169.737,231.197C168.762,230.984 167.93,230.709 167.24,230.372C166.551,230.035 165.982,229.661 165.535,229.25C165.088,228.839 164.725,228.436 164.446,228.04C163.919,227.336 163.541,226.603 163.313,225.84C163.086,225.078 162.973,224.248 162.973,223.354C162.973,222.474 163.086,221.62 163.313,220.791C163.541,219.962 163.903,219.196 164.402,218.492C164.945,217.73 165.572,217.11 166.283,216.633C166.995,216.157 167.735,215.789 168.506,215.533C169.275,215.277 170.049,215.104 170.826,215.016C171.604,214.928 172.337,214.876 173.026,214.862Z" style="fill:rgb(166,170,170);fill-rule:nonzero;"/>
            <path d="M191.242,221.352L196.456,221.352C196.882,221.352 197.164,221.337 197.304,221.308C197.442,221.278 197.549,221.248 197.622,221.218C198.077,221.056 198.305,220.678 198.305,220.086C198.305,219.613 198.069,219.273 197.601,219.066C197.483,219.006 197.333,218.969 197.149,218.955C196.966,218.94 196.742,218.932 196.479,218.932L191.242,218.932L191.242,221.352ZM191.221,227.424L196.853,227.424C197.131,227.424 197.369,227.416 197.567,227.402C197.766,227.387 197.923,227.351 198.04,227.292C198.407,227.16 198.642,226.969 198.744,226.72C198.847,226.471 198.898,226.214 198.898,225.95C198.898,225.349 198.649,224.975 198.15,224.828C197.975,224.77 197.78,224.737 197.567,224.729C197.354,224.722 197.08,224.718 196.742,224.718L191.221,224.718L191.221,227.424ZM185.654,215.434L198.679,215.434C198.942,215.434 199.232,215.442 199.548,215.456C199.862,215.471 200.178,215.503 200.493,215.555C200.809,215.607 201.124,215.687 201.439,215.797C201.755,215.907 202.045,216.058 202.309,216.248C202.587,216.454 202.814,216.685 202.99,216.941C203.166,217.198 203.302,217.455 203.397,217.711C203.493,217.968 203.555,218.217 203.585,218.459C203.613,218.701 203.629,218.91 203.629,219.086C203.629,220.054 203.368,220.817 202.848,221.374C202.327,221.931 201.59,222.328 200.637,222.562C200.871,222.591 201.113,222.628 201.362,222.672C201.611,222.716 201.861,222.782 202.11,222.87C202.359,222.958 202.605,223.076 202.848,223.222C203.09,223.369 203.32,223.552 203.54,223.772C203.878,224.124 204.108,224.505 204.233,224.916C204.358,225.327 204.421,225.811 204.421,226.368C204.421,226.911 204.347,227.399 204.2,227.831C204.054,228.264 203.852,228.645 203.596,228.975C203.339,229.305 203.042,229.587 202.704,229.822C202.367,230.057 202.008,230.248 201.627,230.394C200.967,230.644 200.284,230.801 199.58,230.867C198.877,230.933 198.217,230.966 197.601,230.966L185.654,230.966L185.654,215.434Z" style="fill:rgb(166,170,170);fill-rule:nonzero;"/>
            <path d="M222.637,215.434L222.637,218.932L211.834,218.932L211.834,221.484L221.822,221.484L221.822,224.982L211.813,224.982L211.813,227.468L222.856,227.468L222.856,230.966L206.269,230.966L206.269,215.434L222.637,215.434Z" style="fill:rgb(166,170,170);fill-rule:nonzero;"/>
            <path d="M230.139,221.814L234.318,221.814C234.538,221.814 234.776,221.807 235.033,221.791C235.29,221.777 235.535,221.725 235.771,221.635C236.005,221.546 236.199,221.405 236.354,221.21C236.508,221.017 236.584,220.742 236.584,220.384C236.584,220.206 236.555,220.027 236.496,219.848C236.438,219.669 236.335,219.513 236.188,219.379C235.969,219.17 235.727,219.043 235.463,218.999C235.198,218.955 234.964,218.932 234.759,218.932L230.139,218.932L230.139,221.814ZM224.572,215.434L235.99,215.434C236.327,215.434 236.684,215.442 237.058,215.456C237.432,215.471 237.806,215.511 238.18,215.577C238.554,215.643 238.924,215.743 239.29,215.874C239.657,216.006 240.002,216.19 240.324,216.424C240.882,216.85 241.325,217.415 241.655,218.119C241.985,218.824 242.15,219.572 242.15,220.364C242.15,220.921 242.065,221.456 241.897,221.97C241.729,222.484 241.482,222.931 241.16,223.313C240.94,223.578 240.713,223.793 240.479,223.962C240.243,224.131 240.013,224.267 239.785,224.37C239.558,224.472 239.338,224.553 239.125,224.612C238.913,224.67 238.726,224.721 238.564,224.765L242.458,230.966L236.299,230.966L233.108,225.312L230.139,225.312L230.139,230.966L224.572,230.966L224.572,215.434Z" style="fill:rgb(166,170,170);fill-rule:nonzero;"/>
            <path d="M259.332,215.412L259.332,218.91L253.832,218.91L253.832,230.966L248.223,230.966L248.223,218.91L242.7,218.91L242.7,215.412L259.332,215.412Z" style="fill:rgb(166,170,170);fill-rule:nonzero;"/>
            <path d="M268.286,218.184C268.11,218.184 267.883,218.195 267.604,218.217C267.325,218.239 267.055,218.294 266.79,218.382C266.526,218.47 266.303,218.598 266.119,218.767C265.936,218.936 265.845,219.16 265.845,219.438C265.845,219.658 265.902,219.841 266.021,219.988C266.108,220.106 266.266,220.215 266.493,220.318C266.721,220.42 266.97,220.516 267.241,220.604C267.513,220.692 267.787,220.769 268.066,220.835C268.345,220.901 268.595,220.956 268.814,221C269.343,221.118 269.874,221.231 270.409,221.341C270.944,221.451 271.477,221.565 272.004,221.682C272.342,221.755 272.676,221.832 273.005,221.913C273.335,221.994 273.669,222.1 274.006,222.232C274.52,222.422 274.952,222.658 275.305,222.936C275.656,223.215 275.938,223.519 276.151,223.849C276.363,224.179 276.515,224.524 276.603,224.883C276.69,225.243 276.734,225.598 276.734,225.95C276.734,226.463 276.657,226.951 276.503,227.413C276.35,227.875 276.154,228.275 275.92,228.612C275.261,229.595 274.271,230.31 272.95,230.757C271.63,231.205 269.922,231.428 267.824,231.428C267.429,231.428 266.955,231.414 266.405,231.384C265.855,231.355 265.279,231.282 264.679,231.164C264.077,231.046 263.482,230.871 262.896,230.636C262.31,230.402 261.789,230.079 261.334,229.668C260.997,229.374 260.726,229.071 260.521,228.755C260.314,228.44 260.157,228.132 260.047,227.831C259.937,227.531 259.855,227.251 259.806,226.995C259.754,226.739 259.721,226.522 259.706,226.346L265.185,226.192C265.287,226.706 265.609,227.13 266.152,227.468C266.694,227.805 267.517,227.974 268.616,227.974C268.909,227.974 269.235,227.952 269.596,227.908C269.954,227.864 270.273,227.761 270.553,227.6C270.743,227.483 270.919,227.322 271.08,227.116C271.241,226.911 271.322,226.676 271.322,226.412C271.322,226.045 271.205,225.774 270.971,225.598C270.735,225.422 270.509,225.297 270.288,225.224C270.112,225.165 269.793,225.088 269.331,224.993C268.869,224.898 268.374,224.799 267.847,224.696C267.318,224.593 266.815,224.498 266.339,224.41C265.862,224.322 265.528,224.256 265.338,224.212C264.723,224.08 264.128,223.918 263.557,223.728C263.409,223.669 263.168,223.567 262.83,223.42C262.493,223.274 262.148,223.05 261.795,222.749C261.444,222.449 261.137,222.056 260.872,221.572C260.608,221.088 260.476,220.494 260.476,219.79C260.476,219.204 260.59,218.65 260.816,218.129C261.045,217.609 261.349,217.15 261.73,216.754C262.17,216.299 262.68,215.94 263.26,215.676C263.839,215.412 264.429,215.214 265.03,215.082C265.632,214.95 266.222,214.866 266.802,214.829C267.381,214.792 267.883,214.774 268.309,214.774C268.777,214.774 269.243,214.789 269.705,214.818C270.167,214.847 270.604,214.892 271.015,214.95C271.425,215.009 271.803,215.071 272.147,215.137C272.492,215.203 272.789,215.28 273.038,215.368C273.757,215.603 274.336,215.9 274.776,216.259C275.217,216.619 275.554,216.989 275.788,217.37C276.022,217.751 276.185,218.118 276.272,218.47C276.36,218.822 276.427,219.101 276.471,219.306L271.015,219.614C270.984,219.482 270.934,219.335 270.86,219.174C270.787,219.013 270.658,218.859 270.476,218.712C270.292,218.566 270.027,218.441 269.684,218.338C269.339,218.236 268.873,218.184 268.286,218.184Z" style="fill:rgb(166,170,170);fill-rule:nonzero;"/>
            <path d="M295.039,215.434L295.039,218.932L284.236,218.932L284.236,221.484L294.225,221.484L294.225,224.982L284.215,224.982L284.215,227.468L295.259,227.468L295.259,230.966L278.671,230.966L278.671,215.434L295.039,215.434Z" style="fill:rgb(166,170,170);fill-rule:nonzero;"/>
            <path d="M297.041,215.434L301.639,215.434L306.413,220.67C306.75,221.037 307.032,221.345 307.26,221.594C307.487,221.843 307.696,222.081 307.887,222.309C308.077,222.537 308.268,222.775 308.459,223.024C308.649,223.274 308.884,223.574 309.163,223.926C309.133,223.398 309.115,222.94 309.107,222.551C309.101,222.163 309.089,221.789 309.075,221.429C309.06,221.07 309.053,220.7 309.053,220.318C309.053,219.937 309.053,219.482 309.053,218.954L309.053,215.434L314.53,215.434L314.53,230.966L309.911,230.966L304.213,224.542C304.007,224.308 303.835,224.106 303.695,223.937C303.557,223.769 303.424,223.607 303.3,223.453C303.175,223.299 303.047,223.142 302.915,222.98C302.783,222.819 302.629,222.628 302.453,222.408C302.467,223.082 302.479,223.644 302.485,224.091C302.493,224.539 302.5,224.942 302.508,225.301C302.515,225.661 302.522,226.02 302.529,226.379C302.537,226.739 302.541,227.167 302.541,227.666L302.541,230.966L297.041,230.966L297.041,215.434Z" style="fill:rgb(166,170,170);fill-rule:nonzero;"/>
        </g>
    </g>
</svg>
